<svg id="Layer_1" data-name="Layer 1" xmlns="http://www.w3.org/2000/svg" viewBox="0 0 113.73 106.61"><defs><style>.cls-1{fill:#fff;}</style></defs><title>logo hvid</title><path class="cls-1" d="M41.87,106.61q-18.39,0-36.71-1.11a4.92,4.92,0,0,1-2.05-.44c-1.4-.74-1.81-2.45-2-4C.3,95-.79,86.81.86,79.74a10.89,10.89,0,0,1,4.48-6.91c2.14-1.36,4.79-1.65,6.92-1.89l1.94-.21c0-.54,0-1.07-.09-1.58a61.12,61.12,0,0,1,1.5-17.58,7.5,7.5,0,0,1,1.64-3.65,7.7,7.7,0,0,1,4.52-1.82l1-.15c-.25-5.34-.31-10.75-.18-16.1.06-2.73.18-5.5.34-8.23,0-.36,0-.72,0-1.06.06-1.92.11-3.58,2-4.94a9.31,9.31,0,0,1,3-1.37c1.54-4.51,7.05-5.89,11.18-6.92a41.68,41.68,0,0,1,6.2-1.18A3.49,3.49,0,0,1,45.18,5c0-1.64,1.12-3.23,3.11-4.26A5.7,5.7,0,0,1,51.22,0,7.55,7.55,0,0,1,55.1,1.84a7.08,7.08,0,0,1,1.59,1.47,3.62,3.62,0,0,1,.53,2.75A3.56,3.56,0,0,1,55.69,8.4l-.41-.63a2.87,2.87,0,0,0,1.21-1.86,2.83,2.83,0,0,0-.42-2.17,6.32,6.32,0,0,0-1.42-1.3A7.05,7.05,0,0,0,51.17.76a4.85,4.85,0,0,0-2.53.66c-1.34.69-2.75,2-2.71,3.57a2.9,2.9,0,0,0,.26,1.1,15.09,15.09,0,0,1,6.39.83,1.81,1.81,0,0,1,1.26,1.14,1.42,1.42,0,0,1-1,1.58,3.33,3.33,0,0,1-1.66,0,10.58,10.58,0,0,1-3.82-1.22,5,5,0,0,1-1.62-1.58A40.07,40.07,0,0,0,39.46,8c-4.08,1-8.95,2.24-10.56,6a30,30,0,0,1,3.45-.42l4.49-.37c9-.76,18.36-1.54,27.58-1.26,3,.09,6.46.36,8.88,2.48,2.2,1.94,3,4.91,3.53,7.82a75.64,75.64,0,0,1,1.24,13.93A8.05,8.05,0,0,1,77,40.92l-.23.32L76.46,41c-2.4-1.93-3-5.21-3.46-8.4l-1.15-8.43a2.07,2.07,0,0,0-.6-1.45.71.71,0,0,0-.63-.11c-.69.18-1.4,1.13-1.8,1.9-.86,1.66-2.32,3.62-4.45,3.62h-.05c-2,0-3.23-1.75-4.38-3.41-1-1.42-2-2.88-3.49-3.22-1.66-.38-3.11.7-4.64,1.85a11.07,11.07,0,0,1-3.66,2.08c-2.74.71-5.49-1-7.33-2.28l-.55-.4c-1.85-1.35-3.77-2.74-6-2.86a14.72,14.72,0,0,0-1.62,0c-1.4.09-2.84.19-3.94-.76a3.85,3.85,0,0,1-1.07-3.49c0-.19.06-.38.1-.57a8.1,8.1,0,0,0-2.35,1.13c-1.58,1.14-1.62,2.48-1.68,4.35,0,.35,0,.71,0,1.09-.16,2.71-.28,5.47-.34,8.2-.13,5.3-.07,10.68.18,16a60.36,60.36,0,0,1,11.29-.56,61.9,61.9,0,0,0,7.69-.22c1.48-.1,3-.2,4.49-.25,9.39-.26,20.3-.43,30.91.87a6.56,6.56,0,0,1,3.49,1.14,6.26,6.26,0,0,1,1.79,2.93,31.94,31.94,0,0,1,1.46,15.39A2.64,2.64,0,0,1,84,66.73c-1,.87-2.41.22-3.43-.82a25.21,25.21,0,0,1-4.93-7.16c-.13-.28-.25-.56-.38-.85-.93-2.09-1.88-4.25-3.86-5s-4.18.2-6.3,1.15l-.66.29c-3,1.33-8.92,3.18-14.37.71-.75-.34-1.46-.75-2.15-1.15s-1.35-.78-2.05-1.1a6.1,6.1,0,0,0-4.34-.51,8.17,8.17,0,0,0-2.39,1.57l-.34.28a14.81,14.81,0,0,1-5.56,3.07,8,8,0,0,1-6.32-.79c-3.09-2-3.84-5.93-4.08-9.7l-1,.14a7.09,7.09,0,0,0-4.09,1.6,6.88,6.88,0,0,0-1.45,3.3A60.34,60.34,0,0,0,14.86,69.1q0,.77.09,1.56A441.28,441.28,0,0,1,80.78,68.8c4.37.2,8.29.48,12,1.82a8.52,8.52,0,0,1,3,1.69c1.47,1.4,2,3.44,2.39,5.42a114.47,114.47,0,0,1,1.91,13.39c.2,2.37-.51,4-1.9,4.29-1.62.36-2.9-1.29-3.41-3-.23-.76-.4-1.54-.57-2.29a20.36,20.36,0,0,0-.91-3.25,5.5,5.5,0,0,0-3.68-3.62c-1.65-.33-3.22.46-4.89,1.3-.49.24-1,.49-1.48.71a13.74,13.74,0,0,1-11.08-.08c-.83-.39-1.63-.86-2.4-1.31s-1.41-.83-2.14-1.18a14.34,14.34,0,0,0-11.29-.38,28.38,28.38,0,0,0-4,2.14,31.62,31.62,0,0,1-3.86,2.07,15.82,15.82,0,0,1-8.13,1.12,33.37,33.37,0,0,1-8.58-2.73c-4.11-1.73-8-3.36-12.07-2.43a20.93,20.93,0,0,0-4.37,1.73,16.16,16.16,0,0,1-5.81,2c-.74.06-2.54,0-3.35-1.29s.16-3.37,1.64-4.27a12.87,12.87,0,0,1,1.88-.89,9.24,9.24,0,0,0,2.13-1.07c2.1-1.55,2.42-4.43,2.36-7.21l-1.88.2c-2.05.22-4.61.5-6.6,1.77a10.17,10.17,0,0,0-4.15,6.45c-1.62,6.94-.54,15.08.25,21,.18,1.39.52,2.88,1.62,3.46a4.52,4.52,0,0,0,1.75.35,605.32,605.32,0,0,0,108.43-3.15l.09.74A604.67,604.67,0,0,1,41.87,106.61Zm47-24.16a5.07,5.07,0,0,1,.94.09,6.28,6.28,0,0,1,4.23,4.08A21.69,21.69,0,0,1,95,90c.17.74.34,1.5.56,2.23.34,1.14,1.29,2.74,2.53,2.46,1.46-.33,1.38-2.76,1.32-3.49a114.94,114.94,0,0,0-1.9-13.31c-.38-1.86-.86-3.78-2.18-5a7.66,7.66,0,0,0-2.77-1.53c-3.66-1.31-7.53-1.58-11.83-1.78A440.58,440.58,0,0,0,15,71.41c.07,3-.27,6.12-2.67,7.9A10.28,10.28,0,0,1,10,80.47a11.05,11.05,0,0,0-1.77.83c-1.18.72-2,2.19-1.39,3.24s2.19,1,2.65.94A15.77,15.77,0,0,0,15,83.57a21.45,21.45,0,0,1,4.54-1.79c4.31-1,8.48.77,12.52,2.46a32.75,32.75,0,0,0,8.38,2.69,15.12,15.12,0,0,0,7.75-1.07,29.72,29.72,0,0,0,3.77-2,29.11,29.11,0,0,1,4.14-2.18,15.06,15.06,0,0,1,11.9.4c.75.36,1.48.79,2.19,1.2a24,24,0,0,0,2.34,1.28A13,13,0,0,0,83,84.6c.48-.21,1-.45,1.44-.69A10.23,10.23,0,0,1,88.91,82.45Zm-19-30.6a5,5,0,0,1,1.82.33c2.26.88,3.32,3.29,4.26,5.42.13.28.25.56.38.83a24.15,24.15,0,0,0,4.79,7c.53.54,1.71,1.4,2.38.79A1.91,1.91,0,0,0,83.92,65,31.08,31.08,0,0,0,82.5,50,5.7,5.7,0,0,0,81,47.41a6.16,6.16,0,0,0-3.11-1C67.28,45.14,56.4,45.31,47,45.57c-1.47,0-3,.15-4.46.25A63.24,63.24,0,0,1,34.8,46a59.53,59.53,0,0,0-11.21.56c.21,3.6.9,7.36,3.74,9.17a7.22,7.22,0,0,0,5.72.69,14,14,0,0,0,5.27-2.92l.34-.28a8.6,8.6,0,0,1,2.62-1.69,6.54,6.54,0,0,1,4.9.53,23.53,23.53,0,0,1,2.11,1.13c.68.39,1.38.79,2.09,1.11,5.18,2.36,10.85.57,13.76-.71l.66-.29A13.05,13.05,0,0,1,69.86,51.85Zm1-30a1.48,1.48,0,0,1,.85.27,2.63,2.63,0,0,1,.92,2l1.15,8.43c.4,2.89,1,5.85,2.87,7.64a8,8,0,0,0,.71-3.9,75.1,75.1,0,0,0-1.22-13.8c-.51-2.78-1.27-5.6-3.3-7.38-2.23-2-5.5-2.22-8.4-2.3-9.19-.28-18.49.5-27.49,1.26l-4.5.37a25.28,25.28,0,0,0-3.8.5,8.24,8.24,0,0,0-.19.89,3.11,3.11,0,0,0,.82,2.82c.86.75,2.1.67,3.4.58a16.27,16.27,0,0,1,1.71,0c2.41.13,4.42,1.59,6.36,3l.55.4c1.71,1.23,4.27,2.8,6.7,2.16a10.36,10.36,0,0,0,3.4-2c1.6-1.2,3.26-2.43,5.26-2,1.78.41,2.88,2,3.94,3.52s2.12,3.07,3.78,3.09,3-1.73,3.81-3.22c.24-.46,1.11-2,2.28-2.28A1.74,1.74,0,0,1,70.82,21.82Zm-24.18-15a4.21,4.21,0,0,0,1.13,1,9.73,9.73,0,0,0,3.55,1.12,2.76,2.76,0,0,0,1.28,0c.3-.1.58-.41.51-.7s-.31-.43-.79-.61A14.25,14.25,0,0,0,46.64,6.81Z"/></svg>
