<svg id="Layer_1" data-name="Layer 1" xmlns="http://www.w3.org/2000/svg" viewBox="0 0 114.43 107.86"><defs><style>.cls-1{fill:#fff;}</style></defs><title>logohvid</title><path class="cls-1" d="M42.5,107.86q-18.4,0-36.75-1.11a5.54,5.54,0,0,1-2.31-.51c-1.65-.87-2.11-2.76-2.34-4.49C.3,95.7-.8,87.41.87,80.23a11.59,11.59,0,0,1,4.76-7.31c2.26-1.43,5-1.73,7.19-2l1.35-.15c0-.34,0-.67-.05-1a62,62,0,0,1,1.5-17.76,8.1,8.1,0,0,1,1.8-3.93,8.16,8.16,0,0,1,4.88-2l.47-.07c-.22-5.17-.28-10.41-.15-15.58.06-2.74.18-5.52.34-8.25,0-.36,0-.71,0-1.05.06-1.91.12-3.89,2.25-5.42a9.47,9.47,0,0,1,2.91-1.38c1.77-4.58,7.33-6,11.51-7a46.51,46.51,0,0,1,5.57-1.12,2.78,2.78,0,0,1-.06-.58c0-1.88,1.24-3.69,3.45-4.83A6.24,6.24,0,0,1,51.88,0,8.2,8.2,0,0,1,56.1,2a7.44,7.44,0,0,1,1.72,1.62,4.18,4.18,0,0,1,.64,3.22,4.19,4.19,0,0,1-1.81,2.75L55.57,7.87a2.2,2.2,0,0,0,.93-1.45,2.21,2.21,0,0,0-.31-1.69A5.82,5.82,0,0,0,54.9,3.57,6.4,6.4,0,0,0,51.76,2a4.24,4.24,0,0,0-2.21.59c-1.17.6-2.4,1.71-2.37,3a1.68,1.68,0,0,0,.06.45,15.63,15.63,0,0,1,6.19.9,2.45,2.45,0,0,1,1.65,1.59,2.05,2.05,0,0,1-1.39,2.3,3.78,3.78,0,0,1-2,.06,11,11,0,0,1-4-1.3,5.48,5.48,0,0,1-1.6-1.46,40.74,40.74,0,0,0-5.84,1.12c-3.5.87-7.6,1.9-9.53,4.58.77-.1,1.52-.16,2.21-.21l4.5-.38c9-.75,18.39-1.54,27.65-1.26,3.13.09,6.69.38,9.26,2.64,2.35,2.06,3.19,5.15,3.74,8.17a76.08,76.08,0,0,1,1.25,14.05,8.56,8.56,0,0,1-1.19,5l-.61.85-.83-.66C74.11,40,73.46,36.62,73,33.3l-1.15-8.43c0-.26-.12-.88-.32-1a.11.11,0,0,0-.13,0A3.26,3.26,0,0,0,70,25.41c-1.36,2.62-3.09,4-5.06,4-2.36,0-3.71-2-4.89-3.68-.95-1.38-1.85-2.68-3.11-3s-2.66.63-4.13,1.74a11.53,11.53,0,0,1-3.88,2.18c-3,.78-5.91-1-7.85-2.38l-.55-.4c-1.78-1.29-3.62-2.63-5.63-2.74a13.54,13.54,0,0,0-1.54,0c-1.46.1-3.1.21-4.4-.91a4.34,4.34,0,0,1-1.32-3.59,7,7,0,0,0-1.22.69c-1.27.92-1.36,1.9-1.42,3.87,0,.35,0,.72,0,1.1-.17,2.71-.28,5.46-.34,8.18-.12,5.06-.07,10.19.14,15.26a59.82,59.82,0,0,1,10.74-.48,61,61,0,0,0,7.62-.22c1.48-.1,3-.2,4.51-.24,9.41-.27,20.35-.44,31,.86A7.27,7.27,0,0,1,82.44,47a6.72,6.72,0,0,1,2,3.21,32.43,32.43,0,0,1,1.49,15.69A3.2,3.2,0,0,1,85,67.82c-1.09,1-2.81.66-4.29-.84a26,26,0,0,1-5.06-7.35c-.12-.28-.25-.56-.38-.85-.87-2-1.78-4-3.51-4.69S68,54.33,66,55.22l-.66.3c-3.13,1.37-9.22,3.27-14.88.7-.78-.35-1.5-.77-2.21-1.17a21.76,21.76,0,0,0-2-1.08,5.46,5.46,0,0,0-3.87-.48,7.68,7.68,0,0,0-2.2,1.45l-.34.29A15.47,15.47,0,0,1,34,58.42a8.61,8.61,0,0,1-6.81-.86c-3.13-2-4-5.8-4.32-9.52l-.29.05a6.5,6.5,0,0,0-3.74,1.41,6.49,6.49,0,0,0-1.29,3,60.15,60.15,0,0,0-1.46,17.18c0,.3,0,.6.05.9A443.4,443.4,0,0,1,81.44,68.8c4.41.21,8.38.49,12.23,1.86a9.06,9.06,0,0,1,3.25,1.82c1.61,1.52,2.16,3.68,2.58,5.75a115.54,115.54,0,0,1,1.92,13.47c.22,2.71-.67,4.55-2.39,4.94-2,.45-3.56-1.44-4.15-3.4-.23-.77-.4-1.56-.57-2.33a21.36,21.36,0,0,0-.88-3.15,4.93,4.93,0,0,0-3.23-3.25c-1.44-.29-2.92.46-4.48,1.25-.51.25-1,.51-1.51.73a14.39,14.39,0,0,1-11.59-.09,26.42,26.42,0,0,1-2.47-1.34c-.71-.41-1.38-.81-2.08-1.15a13.72,13.72,0,0,0-10.79-.36,27.34,27.34,0,0,0-4,2.09,32.18,32.18,0,0,1-3.94,2.11,16.61,16.61,0,0,1-8.45,1.17,33.92,33.92,0,0,1-8.75-2.78c-4-1.69-7.8-3.28-11.68-2.4a20.26,20.26,0,0,0-4.24,1.69,16.77,16.77,0,0,1-6,2A4,4,0,0,1,6.3,85.88c-1.09-1.81.11-4.07,1.85-5.13a13,13,0,0,1,2-.93,9.47,9.47,0,0,0,2-1c1.71-1.27,2.1-3.62,2.12-6L13,72.94c-2.45.26-4.61.57-6.34,1.67a9.58,9.58,0,0,0-3.88,6.07c-1.59,6.82-.52,14.91.26,20.81.17,1.22.45,2.54,1.3,3a3.81,3.81,0,0,0,1.49.28,604.1,604.1,0,0,0,108.32-3.15l.24,2A606,606,0,0,1,42.5,107.86ZM89.55,82.45a5.31,5.31,0,0,1,1,.1A6.87,6.87,0,0,1,95.29,87a23.56,23.56,0,0,1,1,3.46c.17.76.33,1.48.54,2.19.28.94,1,2.19,1.79,2s.94-1.54.84-2.83a113.88,113.88,0,0,0-1.89-13.23c-.36-1.76-.81-3.57-2-4.69A7.24,7.24,0,0,0,93,72.54C89.41,71.27,85.6,71,81.34,70.8a439.73,439.73,0,0,0-65.11,1.8c0,3-.45,6-2.93,7.84a10.89,10.89,0,0,1-2.43,1.23,11.87,11.87,0,0,0-1.68.79c-.9.55-1.6,1.69-1.18,2.38s1.29.7,2.07.64a15.31,15.31,0,0,0,5.32-1.85,22.28,22.28,0,0,1,4.66-1.84c4.51-1,8.78.77,12.91,2.5a32.4,32.4,0,0,0,8.22,2.64,14.49,14.49,0,0,0,7.42-1,29.46,29.46,0,0,0,3.69-2,29.91,29.91,0,0,1,4.24-2.23,15.7,15.7,0,0,1,12.39.42c.78.37,1.52.81,2.24,1.23a24.45,24.45,0,0,0,2.28,1.24,12.35,12.35,0,0,0,10,.08c.47-.21.94-.45,1.42-.69A10.81,10.81,0,0,1,89.55,82.45ZM70.48,51.85a5.74,5.74,0,0,1,2,.37c2.5,1,3.62,3.51,4.61,5.75.13.28.25.56.37.83a23.59,23.59,0,0,0,4.67,6.78c.62.62,1.33.92,1.51.76a1.79,1.79,0,0,0,.24-.77,30.55,30.55,0,0,0-1.39-14.72,5.21,5.21,0,0,0-1.35-2.32,5.52,5.52,0,0,0-2.8-.85C67.87,46.39,57,46.57,47.68,46.83c-1.45,0-3,.14-4.43.24a64.49,64.49,0,0,1-7.86.22,58.4,58.4,0,0,0-10.52.48c.25,3.25,1,6.53,3.42,8.1a6.64,6.64,0,0,0,5.22.62,13.5,13.5,0,0,0,5-2.81l.33-.27A9.16,9.16,0,0,1,41.7,51.6a7.21,7.21,0,0,1,5.37.55c.75.35,1.47.76,2.16,1.16s1.35.78,2,1.09c5,2.25,10.44.52,13.26-.71l.65-.29A13.5,13.5,0,0,1,70.48,51.85Zm1-30a2.13,2.13,0,0,1,1.2.38,3.22,3.22,0,0,1,1.18,2.4L75,33c.35,2.52.78,4.91,2.06,6.58a10.82,10.82,0,0,0,.28-2.76,74.67,74.67,0,0,0-1.21-13.68c-.49-2.67-1.21-5.37-3.1-7-2.07-1.82-5.22-2.06-8-2.14a242.62,242.62,0,0,0-27.43,1.26l-4.49.37a30.07,30.07,0,0,0-3.34.4c0,.15-.06.3-.08.46a2.59,2.59,0,0,0,.6,2.26c.67.58,1.73.51,3,.43A15,15,0,0,1,35,19.13c2.6.14,4.77,1.73,6.69,3.12l.55.4c1.61,1.16,4,2.63,6.18,2.06a9.8,9.8,0,0,0,3.18-1.85c1.64-1.22,3.49-2.6,5.77-2.08,2,.46,3.24,2.22,4.32,3.77,1.2,1.74,2,2.8,3.27,2.82,1.5.07,2.69-1.79,3.25-2.88.35-.66,1.3-2.24,2.68-2.6A2.67,2.67,0,0,1,71.45,21.82ZM49,8.08a10.6,10.6,0,0,0,3,.86,2.31,2.31,0,0,0,1,0h0l-.31-.14A12.31,12.31,0,0,0,49,8.08Z"/></svg>
