<svg id="Layer_1" data-name="Layer 1" xmlns="http://www.w3.org/2000/svg" viewBox="0 0 211 93"><defs><style>.cls-1{fill:#fff;}.cls-2{fill:#f9f9f9;}</style></defs><title>someicons_white</title><path class="cls-1" d="M98,31V62A21.06,21.06,0,0,1,77,83H68V52H79.4V44.43H68c0-5.64,0-10.5,3-13,2.23-1.87,6.55-2.82,12.84-2.82H84l0-7.76h-.16c-9,0-15.32,1.67-19.41,5.09-5.74,4.8-5.71,11.77-5.68,18.51H47.39V52H58.75V83H37A21.06,21.06,0,0,1,16,62V31A21.06,21.06,0,0,1,37,10H77A21.06,21.06,0,0,1,98,31Z"/><path class="cls-1" d="M173,10H146a24,24,0,0,0-24,24V61a24,24,0,0,0,24,24h27a24,24,0,0,0,24-24V34A24,24,0,0,0,173,10Zm18,51a18,18,0,0,1-18,18H146a18,18,0,0,1-18-18V34a18,18,0,0,1,18-18h27a18,18,0,0,1,18,18Z"/><path class="cls-1" d="M159.5,26.81A20.69,20.69,0,1,0,180.19,47.5,20.71,20.71,0,0,0,159.5,26.81Zm0,35.38A14.69,14.69,0,1,1,174.19,47.5,14.71,14.71,0,0,1,159.5,62.19Z"/><path class="cls-1" d="M180.73,22.73a3.54,3.54,0,1,0,3.54,3.54A3.55,3.55,0,0,0,180.73,22.73Z"/><rect class="cls-2" x="58.75" y="83" width="9.28" height="0.03"/></svg>
